<svg width="48" height="61" viewBox="0 0 48 61" fill="none" xmlns="http://www.w3.org/2000/svg">
<circle cx="35.5" cy="58.5" r="2.5" fill="#D9D9D9"/>
<path d="M23.5039 3.15353C34.3713 1.77892 46.9561 9.82562 44.7448 19.6485C42.8219 28.1901 23.5039 30.187 23.5039 30.187M23.5039 3.15353C23.5039 13.7108 23.5039 30.187 23.5039 30.187M23.5039 3.15353C13.6244 2.2372 1.06372 10.0986 3.2509 19.6485C5.13537 27.8768 23.5039 30.187 23.5039 30.187M23.5039 30.187C23.5039 30.187 24.9858 54.0132 23.5039 57.2205C22.0219 60.4278 3.71252 53.2646 3.2509 44.391C2.77298 35.2043 23.5039 30.187 23.5039 30.187Z" stroke="white" stroke-width="5"/>
<path d="M23.5039 3.15353C34.3713 1.77892 46.9561 9.82562 44.7448 19.6485C42.8219 28.1901 23.5039 30.187 23.5039 30.187M23.5039 3.15353C23.5039 13.7108 23.5039 30.187 23.5039 30.187M23.5039 3.15353C13.6244 2.2372 1.06372 10.0986 3.2509 19.6485C5.13537 27.8768 23.5039 30.187 23.5039 30.187M23.5039 30.187C23.5039 30.187 24.9858 54.0132 23.5039 57.2205C22.0219 60.4278 3.71252 53.2646 3.2509 44.391C2.77298 35.2043 23.5039 30.187 23.5039 30.187Z" stroke="black" stroke-opacity="0.2" stroke-width="5"/>
</svg>